<?xml version="1.0" standalone="no"?>
<!DOCTYPE svg PUBLIC "-//W3C//DTD SVG 20010904//EN"
 "http://www.w3.org/TR/2001/REC-SVG-20010904/DTD/svg10.dtd">
<svg version="1.0" xmlns="http://www.w3.org/2000/svg"
 width="888.000000pt" height="888.000000pt" viewBox="0 0 888.000000 888.000000"
 preserveAspectRatio="xMidYMid meet">
<metadata>
Created by potrace 1.14, written by Peter Selinger 2001-2017
</metadata>
<g transform="translate(0.000000,888.000000) scale(0.100000,-0.100000)"
fill="#000000" stroke="none">
<path d="M4599 7496 c-2 -2 -31 -7 -64 -10 -152 -16 -245 -32 -410 -71 -226
-52 -620 -198 -865 -319 -25 -13 -47 -23 -50 -23 -29 1 -715 -368 -761 -409
-8 -8 -18 -14 -22 -14 -11 0 -346 -230 -417 -287 -8 -6 -51 -40 -95 -74 -44
-34 -87 -68 -95 -75 -8 -8 -27 -24 -42 -36 -289 -245 -583 -542 -798 -808 -25
-30 -49 -60 -55 -67 -20 -25 -31 -39 -70 -93 -22 -30 -42 -57 -45 -60 -3 -3
-26 -34 -51 -70 -24 -36 -46 -67 -49 -70 -3 -3 -25 -36 -50 -75 -25 -38 -47
-72 -50 -75 -11 -11 -70 -112 -70 -121 0 -5 -4 -9 -10 -9 -5 0 -10 -4 -10 -9
0 -5 -30 -60 -66 -122 -119 -206 -245 -475 -309 -658 -72 -208 -109 -371 -132
-586 -9 -83 -9 -429 0 -500 3 -27 9 -72 13 -100 4 -27 17 -93 31 -145 24 -96
26 -103 35 -130 3 -8 14 -37 23 -65 17 -47 94 -209 126 -265 13 -22 87 -131
106 -155 187 -240 393 -396 666 -504 82 -33 242 -78 301 -86 21 -2 46 -7 55
-9 66 -20 470 -29 601 -13 36 4 79 9 95 11 91 11 334 61 422 87 37 11 77 22
88 24 62 14 402 133 470 165 17 8 71 30 85 35 13 4 67 27 116 50 30 14 57 25
59 25 27 0 667 326 714 363 20 16 52 35 84 48 15 6 27 15 27 20 0 5 5 9 11 9
11 0 370 235 467 306 85 62 203 151 225 169 6 6 32 26 57 45 25 19 47 37 50
40 3 3 27 23 55 45 64 51 323 268 352 295 12 11 88 77 169 146 81 70 155 134
164 143 9 9 45 41 80 71 87 75 118 109 140 152 26 49 18 69 -22 58 -70 -21
-170 -96 -359 -271 -15 -14 -49 -44 -75 -65 -26 -21 -52 -43 -58 -49 -6 -5
-34 -28 -61 -50 -28 -22 -59 -48 -69 -57 -11 -10 -23 -18 -27 -18 -4 0 -14 -6
-21 -13 -16 -15 -173 -130 -243 -178 -27 -19 -52 -36 -55 -39 -9 -9 -371 -245
-475 -309 -55 -34 -107 -66 -115 -71 -61 -38 -284 -172 -325 -195 -27 -15 -72
-41 -100 -57 -183 -104 -589 -296 -810 -383 -131 -51 -177 -66 -350 -118 -57
-17 -166 -44 -210 -52 -16 -2 -41 -7 -55 -10 -14 -3 -40 -8 -59 -11 -18 -3
-43 -8 -55 -10 -11 -3 -39 -7 -61 -10 -22 -3 -51 -7 -65 -10 -86 -13 -188 -19
-355 -18 -217 2 -248 5 -394 35 -31 6 -63 13 -71 14 -8 2 -15 4 -15 5 0 1 -7
3 -15 5 -59 12 -270 101 -305 128 -5 4 -32 22 -60 40 -88 56 -181 141 -251
229 -30 37 -54 69 -54 72 0 3 -12 22 -26 43 -52 76 -132 257 -148 336 -3 12
-8 33 -11 47 -36 138 -48 254 -48 455 0 238 5 281 79 634 13 63 99 303 150
418 52 119 172 362 184 373 5 5 25 40 53 93 55 101 278 425 385 557 60 74 115
140 127 154 6 6 41 47 80 91 78 89 369 383 456 460 31 28 71 64 90 80 19 17
75 64 124 104 50 41 92 77 93 82 2 5 10 9 17 9 7 0 15 3 17 8 2 6 46 41 123
99 53 41 102 75 238 166 87 59 160 107 163 107 3 0 20 11 38 25 18 14 35 25
38 25 3 0 35 18 69 40 35 21 102 60 149 86 47 26 101 56 120 67 380 214 899
423 1165 471 17 3 41 8 55 11 13 2 40 7 60 10 20 3 47 8 60 10 126 25 492 25
610 0 14 -3 36 -8 50 -10 112 -18 252 -87 328 -163 52 -50 105 -136 117 -191
3 -9 8 -32 13 -51 13 -51 14 -186 3 -250 -14 -79 -17 -88 -41 -160 -37 -113
-89 -222 -185 -385 -16 -27 -32 -52 -35 -55 -3 -3 -27 -39 -55 -80 -140 -212
-424 -521 -630 -685 -27 -22 -52 -43 -55 -46 -8 -9 -190 -138 -221 -156 -16
-10 -29 -21 -29 -25 0 -4 -5 -8 -11 -8 -6 0 -30 -13 -54 -30 -24 -16 -47 -30
-51 -30 -4 0 -15 -6 -23 -14 -19 -17 -199 -108 -273 -137 -51 -21 -162 -56
-203 -64 -87 -19 -132 -23 -229 -20 -149 3 -236 38 -314 124 -52 57 -101 169
-116 263 -14 88 -44 118 -118 118 -92 0 -128 -37 -123 -125 3 -50 18 -122 34
-160 47 -112 76 -160 133 -222 53 -58 158 -118 248 -141 86 -23 106 -25 250
-25 174 -1 234 5 405 43 196 42 330 92 525 193 99 51 342 206 373 239 10 10
21 18 25 18 4 0 18 10 32 23 14 12 45 38 70 57 104 81 411 382 485 475 22 28
42 52 45 55 3 3 40 48 81 100 181 226 265 392 309 605 75 365 22 605 -177 801
-60 59 -235 184 -258 184 -3 0 -28 11 -57 25 -28 14 -55 25 -59 25 -4 0 -20 5
-36 12 -15 6 -32 12 -38 13 -5 2 -37 10 -70 18 -33 9 -87 20 -120 26 -33 5
-76 13 -95 16 -37 7 -465 17 -471 11z"/>
<path d="M7797 6284 c-1 -1 -27 -4 -57 -7 -131 -13 -196 -51 -334 -192 -109
-111 -230 -265 -349 -445 -32 -47 -61 -89 -65 -95 -30 -39 -234 -375 -330
-544 -14 -25 -38 -67 -53 -93 -16 -27 -29 -51 -29 -53 0 -2 -15 -30 -34 -62
-18 -32 -53 -96 -78 -143 -25 -47 -61 -114 -81 -150 -128 -239 -367 -712 -475
-940 -53 -112 -199 -432 -212 -465 -4 -11 -21 -49 -38 -85 -16 -36 -38 -89
-48 -117 -10 -29 -22 -53 -26 -53 -5 0 -8 -8 -8 -18 0 -10 -5 -23 -12 -30 -7
-7 -9 -12 -5 -12 4 0 0 -15 -10 -32 -9 -18 -18 -35 -18 -38 0 -3 -6 -14 -12
-25 -6 -11 -11 -22 -11 -25 -1 -8 -13 -42 -22 -65 -14 -31 -64 -160 -104 -264
-33 -87 -35 -96 -21 -117 16 -25 56 -38 145 -50 71 -9 199 -12 228 -4 16 4 43
37 87 110 35 58 69 110 74 117 6 7 18 28 28 47 9 20 19 36 23 36 3 0 16 20 30
45 14 25 28 45 32 45 5 0 8 4 8 10 0 8 192 291 235 345 8 11 56 74 107 140 85
112 205 264 218 275 3 3 25 28 49 55 43 50 53 56 57 33 1 -7 12 -49 24 -93 12
-44 26 -93 30 -110 10 -37 49 -165 57 -185 3 -8 7 -19 8 -25 9 -40 118 -332
151 -404 113 -245 196 -400 270 -502 19 -26 34 -51 34 -57 0 -6 3 -12 8 -14 4
-1 27 -30 52 -62 41 -55 185 -205 256 -267 42 -38 134 -95 196 -122 85 -38
155 -51 268 -51 274 1 467 120 609 376 41 72 39 115 -5 110 -40 -5 -69 -35
-110 -113 -19 -37 -56 -87 -81 -112 -42 -42 -141 -104 -180 -112 -10 -2 -37
-8 -60 -13 -23 -5 -84 -9 -135 -8 -104 3 -170 23 -254 78 -77 51 -204 185
-269 283 -32 50 -66 101 -75 115 -29 44 -98 193 -142 305 -59 149 -160 493
-182 620 -3 17 -8 41 -11 55 -10 45 -26 124 -31 150 -9 47 -26 135 -35 180 -5
25 -11 59 -14 75 -2 17 -9 57 -15 90 -6 33 -13 74 -15 90 -6 44 -15 88 -21 96
-2 4 20 30 48 58 l53 52 75 -7 c127 -11 365 -5 413 11 7 2 28 6 47 9 28 4 187
44 235 59 67 21 116 42 220 94 96 48 274 168 275 185 0 4 15 22 34 40 60 59
102 137 123 228 15 68 0 196 -29 249 -43 79 -103 105 -218 97 -115 -7 -191
-32 -385 -126 -86 -42 -300 -175 -340 -213 -7 -6 -28 -23 -46 -37 -84 -63
-319 -264 -393 -335 -59 -57 -56 -56 -125 -35 -76 23 -103 40 -162 102 -38 41
-51 48 -82 48 -70 0 -153 -58 -183 -128 -28 -63 -18 -192 28 -377 11 -44 21
-87 23 -96 2 -11 -76 -94 -217 -230 -122 -118 -229 -223 -239 -233 -22 -23
-35 -16 -20 11 5 10 26 63 47 118 36 99 50 134 79 199 8 19 15 37 15 40 0 3
11 29 24 58 14 29 39 87 56 128 48 113 68 155 123 270 28 58 51 107 52 110 2
7 112 224 158 310 68 128 200 355 209 358 4 2 8 8 8 14 0 9 209 329 244 373 9
11 41 53 71 93 54 72 121 157 140 178 6 6 24 27 40 48 54 68 185 205 297 311
117 111 139 130 256 224 120 97 126 106 109 157 -11 32 -79 62 -162 71 -57 6
-115 9 -118 7z m498 -1634 c19 -31 -82 -146 -201 -227 -301 -205 -547 -321
-720 -339 l-59 -6 25 21 c14 11 30 25 36 29 5 5 20 14 31 21 12 6 27 17 35 24
18 18 206 151 313 222 49 33 96 66 103 73 7 6 19 12 27 12 7 0 15 4 17 8 3 9
161 102 172 102 5 0 20 9 35 19 51 37 172 63 186 41z"/>
<path d="M8552 2872 c-12 -2 -35 -19 -50 -39 -15 -19 -71 -91 -125 -159 -153
-194 -182 -267 -124 -319 25 -24 88 -55 109 -55 8 0 18 -3 22 -7 3 -4 14 -8
24 -9 9 -1 35 -6 57 -11 22 -5 72 -9 111 -8 59 1 76 5 101 25 53 44 203 317
203 371 0 51 -91 148 -176 188 -45 21 -107 31 -152 23z"/>
</g>
</svg>
